<svg width="281" height="111" viewBox="0 0 281 111" fill="none" xmlns="http://www.w3.org/2000/svg">
<path d="M52.75 109V85.9H0.7V67.6L55 2.49999H75.4V65.2H89.05V85.9H75.4V109H52.75ZM28.3 65.2H52.75V35.95L28.3 65.2ZM141.937 110.65C130.037 110.65 120.337 106.65 112.837 98.65C105.337 90.65 101.587 80.45 101.587 68.05V43.3C101.587 30.9 105.337 20.7 112.837 12.7C120.337 4.69999 130.037 0.699991 141.937 0.699991C153.737 0.699991 163.387 4.69999 170.887 12.7C178.387 20.7 182.137 30.9 182.137 43.3V68.05C182.137 80.45 178.387 90.65 170.887 98.65C163.387 106.65 153.737 110.65 141.937 110.65ZM141.937 88.3C147.237 88.3 151.487 86.5 154.687 82.9C157.887 79.3 159.487 74.35 159.487 68.05V43.3C159.487 37 157.887 32.05 154.687 28.45C151.487 24.85 147.237 23.05 141.937 23.05C136.537 23.05 132.237 24.85 129.037 28.45C125.837 32.05 124.237 37 124.237 43.3V68.05C124.237 74.35 125.837 79.3 129.037 82.9C132.237 86.5 136.537 88.3 141.937 88.3ZM244.059 109V85.9H192.009V67.6L246.309 2.49999H266.709V65.2H280.359V85.9H266.709V109H244.059ZM219.609 65.2H244.059V35.95L219.609 65.2Z" fill="#3C50E0"/>
</svg>
