<svg width="33" height="24" viewBox="0 0 33 24" fill="none" xmlns="http://www.w3.org/2000/svg">
<g clip-path="url(#clip0_317_537)">
<path d="M31.1002 23.67V23.7349H31.1552H31.1852C31.1874 23.7312 31.1886 23.7268 31.1886 23.7225C31.1886 23.7181 31.1874 23.7138 31.1852 23.71H31.1552L31.1002 23.67ZM31.1552 23.6299C31.1663 23.6253 31.1782 23.6229 31.1902 23.6229C31.2022 23.6229 31.2141 23.6253 31.2253 23.6299C31.2292 23.6386 31.2313 23.6479 31.2313 23.6575C31.2313 23.667 31.2292 23.6764 31.2253 23.685C31.2284 23.692 31.2301 23.6997 31.2301 23.7075C31.2301 23.7152 31.2284 23.7229 31.2253 23.73C31.2075 23.7364 31.188 23.7364 31.1702 23.73L31.2452 23.815H31.1852L31.1152 23.73V23.815H31.0652V23.5849L31.1552 23.6299ZM31.1552 23.94C31.1797 23.947 31.2057 23.947 31.2302 23.94C31.2546 23.9316 31.2768 23.9179 31.2952 23.8999C31.3113 23.882 31.3249 23.8618 31.3352 23.8399C31.355 23.7902 31.355 23.7347 31.3352 23.685C31.3249 23.6632 31.3113 23.6429 31.2952 23.625C31.2769 23.6056 31.2548 23.5903 31.2302 23.58H31.1552H31.0802C31.0556 23.5903 31.0335 23.6056 31.0152 23.625C30.9884 23.653 30.9703 23.6884 30.9632 23.7265C30.9562 23.7647 30.9603 23.8041 30.9752 23.8399C30.9844 23.8624 30.998 23.8828 31.0152 23.8999C31.0335 23.9194 31.0556 23.9347 31.0802 23.9449C31.105 23.9497 31.1305 23.9497 31.1552 23.9449V23.94ZM31.1552 23.4949C31.2228 23.4951 31.2875 23.5221 31.3352 23.5699C31.3596 23.592 31.3784 23.6194 31.3902 23.65C31.4052 23.6803 31.413 23.7136 31.413 23.7475C31.413 23.7813 31.4052 23.8147 31.3902 23.845C31.3795 23.8762 31.3605 23.9038 31.3352 23.925C31.3128 23.9488 31.2855 23.9675 31.2552 23.98C31.2235 23.9932 31.1896 24 31.1552 24C31.1209 24 31.0869 23.9932 31.0552 23.98C31.024 23.9664 30.9954 23.9478 30.9702 23.925C30.9489 23.9014 30.9321 23.8744 30.9202 23.845C30.9052 23.8147 30.8974 23.7813 30.8974 23.7475C30.8974 23.7136 30.9052 23.6803 30.9202 23.65C30.9468 23.5897 30.995 23.5416 31.0552 23.515C31.0882 23.5075 31.1223 23.5075 31.1552 23.515V23.4949ZM7.54024 22.615C7.54519 22.464 7.59477 22.3179 7.68267 22.195C7.77057 22.0722 7.89289 21.9781 8.03419 21.9247C8.17549 21.8713 8.32947 21.8608 8.47662 21.8947C8.62384 21.9287 8.75772 22.0054 8.86137 22.1154C8.96502 22.2253 9.03379 22.3634 9.05899 22.5123C9.08427 22.6612 9.06484 22.8143 9.00327 22.9522C8.94162 23.0902 8.84059 23.2068 8.71279 23.2873C8.58499 23.3679 8.43619 23.4088 8.28522 23.4049C8.18022 23.4066 8.07604 23.3864 7.97922 23.3458C7.88239 23.305 7.79509 23.2448 7.72272 23.1687C7.65034 23.0926 7.59462 23.0023 7.55884 22.9036C7.52314 22.8048 7.50829 22.6997 7.51519 22.5949L7.54024 22.615ZM9.56517 22.5949V21.33H9.01519V21.64C8.92167 21.5179 8.80009 21.4202 8.66089 21.355C8.52169 21.2897 8.36884 21.2588 8.21524 21.265C7.86244 21.265 7.52419 21.4051 7.27476 21.6545C7.02533 21.904 6.88521 22.2422 6.88521 22.5949C6.88521 22.9477 7.02533 23.286 7.27476 23.5354C7.52419 23.7848 7.86244 23.925 8.21524 23.925C8.36832 23.9308 8.52057 23.9004 8.65969 23.836C8.79874 23.7718 8.92054 23.6754 9.01519 23.5549V23.86H9.56517V22.5949ZM28.1652 22.5949C28.174 22.4459 28.2262 22.3027 28.3154 22.1829C28.4046 22.0632 28.527 21.9721 28.6673 21.9211C28.8076 21.87 28.9598 21.8611 29.1051 21.8956C29.2504 21.9299 29.3825 22.0061 29.485 22.1147C29.5875 22.2232 29.6561 22.3594 29.6821 22.5065C29.7082 22.6535 29.6907 22.805 29.6317 22.9422C29.5727 23.0794 29.4748 23.1963 29.3502 23.2785C29.2255 23.3608 29.0796 23.4047 28.9302 23.4049C28.8256 23.4058 28.722 23.3852 28.6257 23.3442C28.5296 23.3032 28.4428 23.2429 28.371 23.1668C28.2992 23.0908 28.2438 23.0008 28.2084 22.9024C28.173 22.804 28.1583 22.6993 28.1652 22.5949ZM30.2152 22.5949V20.3149H29.6702V21.64C29.5783 21.5174 29.4578 21.4192 29.3193 21.3538C29.1807 21.2884 29.0283 21.2579 28.8752 21.265C28.5225 21.265 28.1842 21.4051 27.9348 21.6545C27.6853 21.904 27.5452 22.2422 27.5452 22.5949C27.5452 22.9477 27.6853 23.286 27.9348 23.5354C28.1842 23.7848 28.5225 23.925 28.8752 23.925C29.0277 23.9317 29.1796 23.9016 29.3179 23.8372C29.4564 23.7727 29.5772 23.676 29.6702 23.5549V23.86H30.2252L30.2152 22.5949ZM16.4052 21.76C16.4877 21.7579 16.5698 21.7723 16.6467 21.8022C16.7236 21.8321 16.7938 21.877 16.8534 21.9341C16.9128 21.9913 16.9604 22.0597 16.9933 22.1353C17.0263 22.211 17.0439 22.2925 17.0452 22.375H15.7352C15.7443 22.2052 15.8195 22.0457 15.9447 21.9307C16.07 21.8158 16.2353 21.7545 16.4052 21.76ZM16.4052 21.2599C16.0524 21.2646 15.716 21.4092 15.4698 21.6619C15.2238 21.9146 15.0881 22.2547 15.0927 22.6075C15.0973 22.9602 15.2419 23.2966 15.4946 23.5428C15.7473 23.7889 16.0875 23.9246 16.4402 23.92C16.8172 23.9338 17.186 23.8072 17.4752 23.565L17.2052 23.155C16.9968 23.3232 16.7379 23.4165 16.4702 23.4199C16.2884 23.4354 16.1077 23.3793 15.9666 23.2634C15.8256 23.1476 15.7354 22.9813 15.7152 22.8H17.5952C17.5952 22.735 17.5952 22.665 17.5952 22.59C17.6112 22.4218 17.592 22.2523 17.5387 22.092C17.4855 21.9317 17.3994 21.7843 17.286 21.6592C17.1727 21.534 17.0344 21.4339 16.8802 21.3652C16.7259 21.2964 16.5591 21.2606 16.3902 21.2599H16.4052ZM23.0402 22.59C23.049 22.4409 23.1012 22.2976 23.1904 22.1779C23.2797 22.0582 23.402 21.9671 23.5423 21.916C23.6826 21.865 23.8348 21.8561 23.9802 21.8905C24.1255 21.925 24.2575 22.0012 24.3601 22.1097C24.4626 22.2183 24.5311 22.3545 24.5571 22.5015C24.5832 22.6486 24.5656 22.8 24.5067 22.9372C24.4476 23.0743 24.3498 23.1913 24.2252 23.2735C24.1005 23.3557 23.9545 23.3997 23.8052 23.4C23.7006 23.4009 23.597 23.3802 23.5008 23.3392C23.4045 23.2982 23.3178 23.2378 23.246 23.1618C23.1742 23.0858 23.1189 22.9957 23.0835 22.8973C23.0481 22.7989 23.0333 22.6943 23.0402 22.59ZM25.0852 22.59V21.33H24.5352V21.64C24.4423 21.5173 24.3208 21.4191 24.1815 21.3538C24.0421 21.2884 23.889 21.258 23.7352 21.265C23.3825 21.265 23.0442 21.4051 22.7947 21.6545C22.5453 21.904 22.4052 22.2422 22.4052 22.5949C22.4052 22.9477 22.5453 23.286 22.7947 23.5354C23.0442 23.7848 23.3825 23.925 23.7352 23.925C23.8884 23.9317 24.041 23.9016 24.1802 23.8372C24.3194 23.7728 24.4411 23.6761 24.5352 23.5549V23.86H25.0852V22.5949V22.59ZM19.9302 22.59C19.9222 22.7691 19.9519 22.948 20.0174 23.1149C20.0829 23.2819 20.1828 23.4331 20.3106 23.5591C20.4384 23.6849 20.5911 23.7825 20.759 23.8456C20.9269 23.9086 21.1062 23.9356 21.2852 23.925C21.6162 23.9416 21.9411 23.8327 22.1952 23.62L21.9302 23.175C21.7395 23.3221 21.506 23.4028 21.2652 23.4049C21.0504 23.4049 20.8443 23.3196 20.6925 23.1677C20.5405 23.0158 20.4552 22.8098 20.4552 22.5949C20.4552 22.3801 20.5405 22.1741 20.6925 22.0222C20.8443 21.8703 21.0504 21.7849 21.2652 21.7849C21.5051 21.7878 21.7379 21.8665 21.9302 22.0099L22.1952 21.565C21.9394 21.3558 21.6152 21.2489 21.2852 21.265C21.107 21.2551 20.9287 21.2825 20.7618 21.3456C20.5949 21.4087 20.4429 21.5059 20.3158 21.6312C20.1887 21.7564 20.0892 21.9068 20.0236 22.0728C19.9581 22.2388 19.928 22.4167 19.9352 22.5949L19.9302 22.59ZM27.0302 21.265C26.8963 21.2611 26.7639 21.2935 26.6469 21.3586C26.5299 21.4237 26.4326 21.5192 26.3652 21.6349V21.33H25.8402V23.86H26.3902V22.44C26.3902 22.0249 26.5702 21.79 26.9302 21.79C27.0483 21.7893 27.1654 21.8113 27.2752 21.855L27.4402 21.355C27.3155 21.3084 27.1833 21.2847 27.0502 21.285L27.0302 21.265ZM12.2852 21.5299C11.983 21.3503 11.6367 21.2586 11.2852 21.265C10.6452 21.265 10.2302 21.5749 10.2302 22.075C10.2302 22.4899 10.5352 22.7449 11.1052 22.825L11.3652 22.86C11.6652 22.9 11.8102 22.98 11.8102 23.125C11.8102 23.2699 11.6052 23.43 11.2302 23.43C10.9282 23.4396 10.632 23.3461 10.3902 23.1649L10.1302 23.595C10.4499 23.8204 10.8342 23.9362 11.2252 23.925C11.9552 23.925 12.3802 23.58 12.3802 23.1C12.3802 22.62 12.0452 22.42 11.4952 22.3399L11.2352 22.305C11.0002 22.275 10.8102 22.225 10.8102 22.0549C10.8102 21.885 10.9902 21.76 11.3102 21.76C11.5875 21.7637 11.8593 21.8377 12.1002 21.975L12.3352 21.5299H12.2852ZM19.3902 21.265C19.2557 21.2613 19.1226 21.2937 19.0048 21.3588C18.8871 21.4238 18.7887 21.5191 18.7202 21.6349V21.33H18.1852V23.86H18.7352V22.44C18.7352 22.0249 18.9152 21.79 19.2752 21.79C19.3934 21.7888 19.5106 21.8109 19.6202 21.855L19.7902 21.355C19.6654 21.3084 19.5333 21.2847 19.4002 21.285L19.3902 21.265ZM14.7002 21.3499H13.7852V20.56H13.2452V21.33H12.7452V21.8299H13.2452V22.9999C13.2452 23.59 13.4752 23.94 14.1252 23.94C14.3688 23.9404 14.6078 23.8729 14.8152 23.745L14.6552 23.245C14.5037 23.3353 14.3316 23.3852 14.1552 23.3899C13.8802 23.3899 13.7902 23.22 13.7902 22.965V21.835H14.6902L14.7002 21.3499ZM6.4702 23.86V22.275C6.47823 22.1416 6.45785 22.0079 6.41043 21.883C6.36302 21.758 6.28963 21.6445 6.19512 21.55C6.10062 21.4555 5.98713 21.3821 5.86218 21.3347C5.73721 21.2873 5.60362 21.2669 5.4702 21.2749C5.29545 21.2656 5.12128 21.3021 4.9651 21.3811C4.80893 21.46 4.6762 21.5786 4.5802 21.7249C4.49421 21.5819 4.3713 21.4647 4.22439 21.3855C4.07747 21.3063 3.91196 21.2681 3.7452 21.2749C3.59988 21.2676 3.45514 21.2983 3.32534 21.364C3.19554 21.4298 3.08518 21.5284 3.0052 21.6499V21.34H2.46021V23.8699H3.01521V22.455C3.00321 22.3684 3.01056 22.2804 3.03673 22.1971C3.06291 22.1137 3.10725 22.0372 3.16657 21.9732C3.22588 21.9091 3.29869 21.859 3.37973 21.8264C3.46077 21.7939 3.54803 21.7797 3.6352 21.7849C4.0002 21.7849 4.18521 22.0249 4.18521 22.45V23.86H4.74021V22.455C4.72912 22.3686 4.73712 22.2809 4.76364 22.198C4.79015 22.1151 4.83453 22.039 4.89366 21.9751C4.95278 21.9112 5.0252 21.8611 5.10582 21.8282C5.18643 21.7954 5.27326 21.7806 5.3602 21.7849C5.7352 21.7849 5.9152 22.02 5.9152 22.45V23.86H6.4702Z" fill="#231F20"/>
<path d="M31.4103 15.4399V15.0698H31.3154L31.2053 15.3248L31.0953 15.0698H30.9953V15.4399H31.0653V15.1649L31.1703 15.4048H31.2404L31.3454 15.1598V15.4399H31.4103ZM30.8003 15.4399V15.1348H30.9254V15.0698H30.6104V15.1348H30.7304V15.4399H30.8003Z" fill="#F79410"/>
<path d="M20.4555 17.0298H12.1155V2.02979H20.4555V17.0298Z" fill="#FF5F00"/>
<path d="M12.6453 9.53491C12.6427 8.09109 12.9691 6.66574 13.5998 5.36704C14.2305 4.06833 15.149 2.93046 16.2854 2.03989C14.8784 0.935421 13.1893 0.248943 11.4107 0.0588757C9.63226 -0.131191 7.83616 0.182817 6.22765 0.965031C4.61913 1.74724 3.26306 2.96611 2.31435 4.4824C1.36564 5.99869 0.862549 7.75126 0.862549 9.53986C0.862549 11.3285 1.36564 13.0811 2.31435 14.5973C3.26306 16.1137 4.61913 17.3325 6.22765 18.1148C7.83616 18.8969 9.63226 19.211 11.4107 19.0209C13.1893 18.8309 14.8784 18.1444 16.2854 17.0399C15.1483 16.1488 14.2295 15.0101 13.5987 13.7105C12.968 12.4109 12.6419 10.9845 12.6453 9.53986" fill="#EB001B"/>
<path d="M31.7104 9.53479C31.7117 11.3242 31.2092 13.0779 30.2604 14.595C29.3116 16.1121 27.9548 17.3315 26.3454 18.1135C24.7359 18.8955 22.9388 19.2087 21.1597 19.017C19.3806 18.8253 17.6914 18.1367 16.2854 17.0298C17.4218 16.1377 18.3406 14.999 18.9724 13.6997C19.6042 12.4005 19.9326 10.9746 19.9326 9.52984C19.9326 8.08504 19.6042 6.6592 18.9724 5.35993C18.3406 4.06066 17.4218 2.92195 16.2854 2.02982C17.6917 0.922687 19.3813 0.233951 21.1609 0.0424842C22.9405 -0.148983 24.738 0.164557 26.3476 0.947204C27.9573 1.72984 29.314 2.94996 30.2624 4.46784C31.2109 5.98571 31.7126 7.73997 31.7104 9.52984" fill="#F79E1B"/>
</g>
<defs>
<clipPath id="clip0_317_537">
<rect width="33" height="24" fill="white"/>
</clipPath>
</defs>
</svg>
