<svg id="Fp4WRAMcq" viewBox="0 0 390 107" height="107" width="390" style="width: 390px; height: 107px; position: absolute; top: 50%; left: 50%; transform: translate(-50%, -50%) scale(0.536923); z-index: 0; cursor: pointer; overflow: visible;" xmlns="http://www.w3.org/2000/svg" xmlns:xlink="http://www.w3.org/1999/xlink"><defs id="SvgjsDefs1133"></defs><g id="SvgjsG1134" featurekey="rootContainer" transform="matrix(1,0,0,1,0,0)" fill="#f6f6f6"><rect xmlns="http://www.w3.org/2000/svg" width="390" height="107" rx="10" ry="10"></rect></g><g id="SvgjsG1135" featurekey="q4o0QG-0" transform="matrix(4.447268710317085,0,0,4.447268710317085,16.797966666412194,-2.8589605772553845)" fill="#1e56a0"><path d="M0.76 19.92 l-0.04 -6.94 l0.08 -0.74 l-0.04 -0.74 l0.1 -4.42 l0.18 -1.72 l6.5 0.12 l0.1 3.9 l-4.26 0 l-0.08 2.5 l3.26 -0.06 l0 0.22 l0.1 1.7 l-3.04 0.06 l0.1 2.96 l4.06 0.2 l0 3.08 z M14.16 12.6 l0 -4.04 l-2.42 0.04 c0 0.5 -0.16 1.4 -0.18 2.2 c0 0.46 -0.02 0.96 -0.06 1.48 l-0.12 1.74 l0 2.04 l0.2 1.16 l1.96 0.12 l0.42 -0.3 l0.12 -2.32 l0.36 0.04 l1.26 -0.04 l0.14 0.72 l-0.06 3 l0 1 l-1.24 0.52 l-0.38 0.06 l-0.34 0.04 l-3.02 -0.12 l-1.72 -0.64 l-0.64 -3.18 l0.24 -3 l0.18 -3.28 l0 -2.6 l0.74 -1.4 l0.68 -0.58 l2.32 0.06 l2.02 0 l1.22 0.54 l0.08 6.64 c-0.32 0.04 -1.44 0.1 -1.76 0.1 z M24.54 7.199999999999999 l-0.08 10.84 l-0.22 1.44 l-0.64 0.52 l-2.04 0.22 l-3.74 -0.36 l-0.54 -0.54 l-0.38 -0.82 l0.08 -3.44 c0 -1.5 0.02 -2.86 0.06 -4.06 c-0.02 -2.04 0 -4.08 0.06 -4.18 c0 -0.08 0.12 -0.42 0.34 -0.74 l0.26 -0.64 l3.16 -0.3 l2.26 0.28 l1.12 0.44 z M20.92 17.3 l0.74 -0.3 l0.24 -7.48 l-0.48 -0.28 l-1.92 -0.04 l-0.18 0.68 l0.04 2.82 l0 4.48 l0.32 0.06 z M25.8 20 l0.24 -14.5 l2.38 -0.18 l1.08 0.12 l1.02 6.94 l0.6 -7.16 l4.1 0.5 c0.02 0.76 0.04 1.54 0.04 2.36 c0.08 1.38 0.18 3.18 0.18 4.84 c0.06 2.68 -0.02 4.6 0.16 7.12 l-1.76 -0.04 l-0.14 -8.98 l-0.38 -0.08 l-1 7.96 l-0.34 0.98 l-2.12 0.12 l-1.02 -8.4 l-0.6 0.14 l0.22 8.38 z M36.620000000000005 20 l0.24 -14.5 l2.38 -0.18 l1.08 0.12 l1.02 6.94 l0.6 -7.16 l4.1 0.5 c0.02 0.76 0.04 1.54 0.04 2.36 c0.08 1.38 0.18 3.18 0.18 4.84 c0.06 2.68 -0.02 4.6 0.16 7.12 l-1.76 -0.04 l-0.14 -8.98 l-0.38 -0.08 l-1 7.96 l-0.34 0.98 l-2.12 0.12 l-1.02 -8.4 l-0.6 0.14 l0.22 8.38 z M47.68 19.92 l-0.04 -6.94 l0.08 -0.74 l-0.04 -0.74 l0.1 -4.42 l0.18 -1.72 l6.5 0.12 l0.1 3.9 l-4.26 0 l-0.08 2.5 l3.26 -0.06 l0 0.22 l0.1 1.7 l-3.04 0.06 l0.1 2.96 l4.06 0.2 l0 3.08 z M57.50000000000001 7.699999999999999 l0.06 1.58 l0 2.06 l0.72 0 l0.7 -0.06 l0.46 -0.44 l0 -0.2 l0.08 -1.36 l-0.16 -1.22 l0 -0.04 l-0.22 -0.8 l-0.54 -0.24 l-1.04 0 z M57.38 5.24 l2.62 0.04 l1.24 0.14 l1.02 0.58 l0.8 1.32 l-0.26 3.86 l-0.32 0.6 l-1.18 0.38 l1.34 1 l0.36 0.98 l0 1.6 l-0.18 4.24 l-0.52 0.12 l-2.06 -0.1 l-0.1 -3.9 l-0.14 -2.06 l-0.48 -0.52 l-0.92 -0.3 l0 1.48 l0 3.72 l0.06 1.56 l-1.94 -0.02 l-0.92 0.06 l-0.32 -0.06 l0 -2.88 l0 -2.1 l0.12 -2.72 l-0.08 -4.68 l-0.04 -2.32 z M69.62 12.6 l0 -4.04 l-2.42 0.04 c0 0.5 -0.16 1.4 -0.18 2.2 c0 0.46 -0.02 0.96 -0.06 1.48 l-0.12 1.74 l0 2.04 l0.2 1.16 l1.96 0.12 l0.42 -0.3 l0.12 -2.32 l0.36 0.04 l1.26 -0.04 l0.14 0.72 l-0.06 3 l0 1 l-1.24 0.52 l-0.38 0.06 l-0.34 0.04 l-3.02 -0.12 l-1.72 -0.64 l-0.64 -3.18 l0.24 -3 l0.18 -3.28 l0 -2.6 l0.74 -1.4 l0.68 -0.58 l2.32 0.06 l2.02 0 l1.22 0.54 l0.08 6.64 c-0.32 0.04 -1.44 0.1 -1.76 0.1 z M72.4 19.92 l-0.04 -6.94 l0.08 -0.74 l-0.04 -0.74 l0.1 -4.42 l0.18 -1.72 l6.5 0.12 l0.1 3.9 l-4.26 0 l-0.08 2.5 l3.26 -0.06 l0 0.22 l0.1 1.7 l-3.04 0.06 l0.1 2.96 l4.06 0.2 l0 3.08 z"></path></g></svg>