<svg width="171" height="36" viewBox="0 0 171 36" fill="none" xmlns="http://www.w3.org/2000/svg">
<path d="M60.5955 26.1475H57.7175L49.337 15.4876V26.1475H45.9985V9.80078H48.8765L57.2571 20.4607V9.80078H60.5955V26.1475Z" fill="#1C274C"/>
<path d="M69.3431 26.4008C67.5779 26.4008 66.1274 25.8329 64.9916 24.697C63.8711 23.5612 63.3109 22.1184 63.3109 20.3686C63.3109 18.6495 63.8788 17.222 65.0146 16.0862C66.1658 14.9504 67.6163 14.3825 69.3661 14.3825C71.1312 14.3825 72.5971 14.9888 73.7636 16.2013C74.9301 17.3986 75.4673 19.0409 75.3752 21.1284H66.396C66.4574 21.8498 66.7567 22.4561 67.294 22.9472C67.8312 23.4231 68.5679 23.661 69.5042 23.661C70.0721 23.661 70.571 23.5535 71.0008 23.3386C71.4459 23.1084 71.7605 22.7938 71.9447 22.3947H75.2371C74.8994 23.5766 74.1934 24.5435 73.1189 25.2956C72.0445 26.0324 70.7859 26.4008 69.3431 26.4008ZM69.274 16.9381C68.5526 16.9381 67.9463 17.13 67.4551 17.5137C66.9793 17.8821 66.6647 18.3963 66.5112 19.0563H71.9217C71.7529 18.3349 71.4152 17.8053 70.9087 17.4676C70.4175 17.1146 69.8726 16.9381 69.274 16.9381Z" fill="#1C274C"/>
<path d="M85.072 26.1475L82.4013 22.7631L79.7305 26.1475H75.9316L80.3982 20.5067L76.0468 14.6357H79.7766L82.3782 18.1583L84.9799 14.6357H88.7327L84.3813 20.5067L88.8479 26.1475H85.072Z" fill="#1C274C"/>
<path d="M96.4007 26.2857C95.1114 26.2857 94.0523 25.9326 93.2235 25.2266C92.41 24.5052 92.0032 23.4691 92.0032 22.1184V17.3986H89.6779V14.6357H92.0032V11.4355H95.1575V14.6357H98.4038V17.3986H95.1575V21.4968C95.1575 22.2028 95.311 22.7093 95.6179 23.0163C95.9249 23.3079 96.4238 23.4538 97.1145 23.4538C97.6056 23.4538 98.0354 23.3847 98.4038 23.2466V26.0324C97.8512 26.2012 97.1835 26.2857 96.4007 26.2857Z" fill="#1C274C"/>
<path d="M102.338 9.80078H105.377L110.695 17.0993L116.014 9.80078H119.053V26.1475H115.714V15.5106L110.695 22.3947L105.676 15.5106V26.1475H102.338V9.80078Z" fill="#1C274C"/>
<path d="M127.796 26.4008C126.03 26.4008 124.58 25.8329 123.444 24.697C122.324 23.5612 121.763 22.1184 121.763 20.3686C121.763 18.6495 122.331 17.222 123.467 16.0862C124.618 14.9504 126.069 14.3825 127.819 14.3825C129.584 14.3825 131.05 14.9888 132.216 16.2013C133.383 17.3986 133.92 19.0409 133.828 21.1284H124.849C124.91 21.8498 125.209 22.4561 125.746 22.9472C126.284 23.4231 127.02 23.661 127.957 23.661C128.525 23.661 129.023 23.5535 129.453 23.3386C129.898 23.1084 130.213 22.7938 130.397 22.3947H133.69C133.352 23.5766 132.646 24.5435 131.571 25.2956C130.497 26.0324 129.238 26.4008 127.796 26.4008ZM127.727 16.9381C127.005 16.9381 126.399 17.13 125.908 17.5137C125.432 17.8821 125.117 18.3963 124.964 19.0563H130.374C130.205 18.3349 129.868 17.8053 129.361 17.4676C128.87 17.1146 128.325 16.9381 127.727 16.9381Z" fill="#1C274C"/>
<path d="M136.509 26.1475V14.6357H139.663V16.4776C139.863 15.9097 140.224 15.4416 140.745 15.0732C141.283 14.6895 141.874 14.4976 142.518 14.4976C142.917 14.4976 143.27 14.5436 143.577 14.6357V17.836C143.071 17.6672 142.595 17.5828 142.15 17.5828C141.398 17.5828 140.792 17.859 140.331 18.4116C139.886 18.9488 139.663 19.6932 139.663 20.6449V26.1475H136.509Z" fill="#1C274C"/>
<path d="M150.89 26.4008C149.156 26.4008 147.713 25.8252 146.562 24.674C145.411 23.5075 144.835 22.08 144.835 20.3916C144.835 18.7032 145.411 17.2834 146.562 16.1323C147.713 14.9657 149.156 14.3825 150.89 14.3825C152.425 14.3825 153.707 14.8122 154.735 15.6718C155.779 16.5313 156.462 17.6518 156.784 19.0332H153.515C153.008 17.836 152.133 17.2374 150.89 17.2374C150.046 17.2374 149.355 17.529 148.818 18.1123C148.281 18.6802 148.012 19.44 148.012 20.3916C148.012 21.3433 148.281 22.1107 148.818 22.694C149.355 23.2619 150.046 23.5459 150.89 23.5459C152.133 23.5459 153.008 22.9472 153.515 21.75H156.784C156.462 23.1314 155.779 24.2519 154.735 25.1115C153.707 25.971 152.425 26.4008 150.89 26.4008Z" fill="#1C274C"/>
<path d="M164.606 26.4008C162.841 26.4008 161.391 25.8329 160.255 24.697C159.134 23.5612 158.574 22.1184 158.574 20.3686C158.574 18.6495 159.142 17.222 160.278 16.0862C161.429 14.9504 162.88 14.3825 164.629 14.3825C166.394 14.3825 167.86 14.9888 169.027 16.2013C170.193 17.3986 170.731 19.0409 170.638 21.1284H161.659C161.721 21.8498 162.02 22.4561 162.557 22.9472C163.094 23.4231 163.831 23.661 164.767 23.661C165.335 23.661 165.834 23.5535 166.264 23.3386C166.709 23.1084 167.024 22.7938 167.208 22.3947H170.5C170.163 23.5766 169.457 24.5435 168.382 25.2956C167.308 26.0324 166.049 26.4008 164.606 26.4008ZM164.537 16.9381C163.816 16.9381 163.21 17.13 162.718 17.5137C162.243 17.8821 161.928 18.3963 161.774 19.0563H167.185C167.016 18.3349 166.678 17.8053 166.172 17.4676C165.681 17.1146 165.136 16.9381 164.537 16.9381Z" fill="#1C274C"/>
<circle cx="18" cy="18" r="18" fill="#3C50E0"/>
<path d="M11.1445 10.4995L18.0015 18.0426V25.4995H11.1445L11.1445 10.4995Z" fill="white"/>
<path opacity="0.7" d="M24.8574 25.5L18.0004 17.9569L18.0004 10.5L24.8574 10.5L24.8574 25.5Z" fill="white"/>
</svg>
