<svg width="30" height="13" viewBox="0 0 30 13" fill="none" xmlns="http://www.w3.org/2000/svg">
<path d="M8.83174 6.13904H11.6037L12.0854 7.68474H13.7898L11.1423 0.17383H9.33316L6.658 7.68547H8.30997L8.83174 6.13904ZM10.213 1.87017H10.2341L11.1641 4.83931H9.25019L10.213 1.87017ZM6.20246 5.46006C6.20246 4.71705 5.96231 3.98495 5.04246 3.64074C5.35539 3.48427 5.9623 3.18154 5.9623 2.10231C5.9623 1.32801 5.49218 0.176006 3.65029 0.176006H0V7.68839H3.18018C4.71861 7.68839 5.12686 7.4264 5.55477 7.00577C5.95138 6.6208 6.20246 6.05317 6.20246 5.46006ZM1.50714 1.47501H3.30682C4.01781 1.47501 4.45735 1.66277 4.45735 2.27988C4.45735 2.87735 3.96684 3.1175 3.34755 3.1175H1.50714V1.47501ZM3.43052 6.39011H1.50714V4.38085H3.50474C4.07091 4.38085 4.63418 4.63482 4.63418 5.29124C4.63345 6.05317 4.19391 6.39011 3.43052 6.39011ZM25.8672 3.25141L29.1092 7.68474H27.0898L24.7683 4.38958L24.0362 5.1435V7.68474H22.4672V0.17383H24.0362V3.22811L26.9035 0.17383H28.9324L25.8672 3.25141ZM6.65947 11.8561C6.65947 11.1378 6.487 11.0199 6.17044 10.8809C6.55104 10.7521 6.76571 10.3897 6.76571 9.96327C6.76571 9.63143 6.5794 8.87677 5.55548 8.87677H3.60956V12.7236H4.39912V11.2193H5.22875C5.82403 11.2193 5.85676 11.4238 5.85676 11.9463C5.85676 12.3422 5.88735 12.5431 5.9412 12.7228H6.83047V12.6224C6.65946 12.5576 6.65947 12.4172 6.65947 11.8561ZM5.33863 10.5724H4.39841V9.54118H5.39904C5.86988 9.54118 5.96159 9.83956 5.96159 10.0448C5.96086 10.4232 5.75854 10.5724 5.33863 10.5724ZM0.000732884 8.87677H3.12999V9.56011H1.96488V12.7257H1.16364V9.56011H0.000732884V8.87677ZM8.4446 8.87677L7.07353 12.7236H7.92061L8.18769 11.9296H9.60753L9.85493 12.7236H10.7282L9.37389 8.87677H8.4446ZM8.40382 11.2659L8.89725 9.74568H8.90525L9.38482 11.2659H8.40382ZM18.6976 8.87677H21.4346V9.56011H19.5017V10.4283H21.1952V11.1087H19.5017V12.7265H18.6976V8.87677ZM13.5948 8.87677H14.3458V12.7236H13.5402L11.9712 9.98H11.9588V12.7236H11.21V8.87677H12.0556L13.5846 11.5548H13.594L13.5948 8.87677ZM28.6006 11.8561C28.6006 11.1378 28.4259 11.0199 28.1115 10.8809C28.4907 10.7521 28.709 10.3897 28.709 9.96327C28.709 9.63143 28.5205 8.87677 27.4973 8.87677H25.5528V12.7236H26.3424V11.2193H27.172C27.7651 11.2193 27.8001 11.4238 27.8001 11.9463C27.8001 12.3422 27.8306 12.5431 27.8852 12.7228H28.7716V12.6224C28.6006 12.5576 28.6006 12.4172 28.6006 11.8561ZM27.2826 10.5724H26.3409V9.54118H27.3401C27.8131 9.54118 27.9048 9.83956 27.9048 10.0448C27.9048 10.4232 27.7011 10.5724 27.2826 10.5724ZM18.0841 11.5672C18.0841 12.7207 16.9038 12.8262 16.5683 12.8262C15.1638 12.8262 14.925 12.0191 14.925 11.5395H15.6935C15.6993 11.7542 15.8071 12.161 16.51 12.161C16.8877 12.161 17.3127 12.0679 17.3127 11.6654C17.3127 11.3634 17.0216 11.2848 16.6155 11.1866L16.2044 11.0891C15.5822 10.9464 14.9832 10.8053 14.9832 9.95745C14.9832 9.52955 15.2125 8.77489 16.4613 8.77489C17.6402 8.77489 17.9553 9.54482 17.9612 10.0164H17.1926C17.1708 9.84538 17.106 9.4393 16.403 9.4393C16.0996 9.4393 15.7328 9.55064 15.7328 9.8985C15.7328 10.1983 15.9803 10.2631 16.1418 10.3017L17.0769 10.5324C17.6009 10.6597 18.0841 10.8759 18.0841 11.5672ZM22.762 12.0431H24.8949V12.7257H21.9746V8.87896H24.8047V9.56084H22.762V10.3693H24.6373V11.0498H22.762V12.0431ZM16.1877 7.68839H14.7235V0.176739H16.3761L19.3584 5.40694H19.378V0.176739H20.8422V7.68911H19.2754L16.2088 2.33374H16.1891L16.1877 7.68839Z" fill="#1C274C"/>
</svg>
