<svg width="65" height="21" viewBox="0 0 65 21" fill="none" xmlns="http://www.w3.org/2000/svg">
<g clip-path="url(#clip0_124_7983)">
<path d="M64.6828 0.503342V14.7777H0V0.503342H64.6828Z" fill="#FFCC00"/>
<path d="M11.3752 3.06668L9.30859 5.8743H20.5716C21.1409 5.8743 21.1334 6.09062 20.8551 6.46759C20.5725 6.85026 20.0996 7.51577 19.8117 7.90448C19.6657 8.10175 19.4016 8.46115 20.2768 8.46115H24.8827C24.8827 8.46115 25.6251 7.45096 26.2472 6.60632C27.0939 5.45752 26.3207 3.0668 23.2941 3.0668L11.3752 3.06668Z" fill="#D2002E"/>
<path d="M8.47238 12.2136L12.6232 6.57358H17.7741C18.3434 6.57358 18.336 6.7899 18.0577 7.16687C17.7751 7.54954 17.2945 8.20797 17.0066 8.59669C16.8604 8.79396 16.5964 9.15392 17.4715 9.15392H24.3722C23.7983 9.94014 21.9367 12.2135 18.5941 12.2135L8.47238 12.2136ZM32.2444 9.15324L29.9934 12.2133H24.0558C24.0558 12.2133 26.3055 9.15392 26.3074 9.15392L32.2444 9.15324ZM41.3406 8.46115H26.8175L30.789 3.06668H36.725L34.4486 6.15988H37.0982L39.3755 3.06668H45.3108L41.3406 8.46115ZM40.8309 9.15404L38.5789 12.2136H32.6434C32.6434 12.2136 34.8931 9.15404 34.895 9.15404H40.8309ZM0 10.3605H8.74734L8.26952 11.0105H0V10.3605ZM0 9.15404H9.63602L9.15728 9.80312H0V9.15404ZM0 11.5676H7.85912L7.38358 12.2136H0V11.5676ZM64.6831 11.0105H55.9694L56.4477 10.3606H64.6831V11.0105ZM64.6831 12.2136L55.0836 12.2145L55.5591 11.5676H64.6831V12.2136ZM57.3352 9.15404H64.6831V9.80346L56.8574 9.80403L57.3352 9.15404ZM53.5313 3.06668L49.5605 8.46103H43.2706C43.2706 8.46103 47.2425 3.06668 47.2445 3.06668H53.5313ZM42.7617 9.15404C42.7617 9.15404 42.3278 9.74698 42.1172 10.032C41.3716 11.0397 42.0307 12.2136 44.4637 12.2136H53.9966L56.2484 9.15404H42.7617Z" fill="#D2002E"/>
<path d="M0 17.0984H64.6831V17.4217H0V17.0984ZM0 18.6073H64.6831V18.9306H0V18.6073ZM0 20.1158H64.6831V20.4392H0V20.1158Z" fill="#FFCC00"/>
<path d="M21.7207 20.4392H23.6674L23.9781 20.018H22.5294L23.3417 18.9173H24.661L24.9718 18.496H23.6525L24.3729 17.5198H25.8217L26.1325 17.0986H24.1859L21.7207 20.4392ZM24.1097 20.4392H24.7071L26.7433 19.0226L26.7234 20.4392H27.3507L27.3553 18.6924L29.7013 17.0986H29.1338L27.2663 18.3813L27.2868 17.0986H26.6894L26.6712 18.702L24.1097 20.4392ZM30.4549 17.5198H30.8781C31.1868 17.5198 31.5317 17.673 31.221 18.0941C30.896 18.5343 30.3982 18.6827 30.0895 18.6827H29.5966L30.4549 17.5198ZM27.8027 20.4392H28.3005L29.2858 19.1039H29.7737C30.401 19.1039 31.1976 18.8407 31.745 18.0988C32.3066 17.3377 31.8907 17.0984 31.1789 17.0984H30.2678L27.8027 20.4392ZM30.6695 20.4392H31.1674L32.2623 18.9555H32.5609C32.8247 18.9555 32.9892 18.9555 32.9034 19.2809L32.5814 20.4392H33.149L33.4737 19.1086C33.5161 18.9029 33.4945 18.8311 33.3823 18.7735L33.3894 18.7639C33.8423 18.6968 34.3677 18.4098 34.668 18.0029C35.2577 17.2038 34.6733 17.0984 33.9861 17.0984H33.1349L30.6695 20.4392ZM33.3219 17.5198H33.7997C34.2579 17.5198 34.3555 17.7113 34.1331 18.0126C33.8965 18.3334 33.4693 18.5343 32.9963 18.5343H32.5731L33.3219 17.5198ZM33.6645 20.4392H35.6112L35.9217 20.018H34.4732L35.2854 18.9173H36.6048L36.9154 18.496H35.5962L36.3166 17.5198H37.7654L38.0763 17.0986H36.1297L33.6645 20.4392ZM40.4742 17.1608C40.2953 17.0794 40.0495 17.0411 39.8206 17.0411C39.1933 17.0411 38.4723 17.3571 38.0343 17.9505C37.2679 18.9891 38.9134 18.7833 38.3623 19.5299C38.0728 19.9222 37.5614 20.0755 37.2777 20.0755C37.0237 20.0755 36.7957 19.9797 36.6759 19.9126L36.2978 20.3578C36.4738 20.4296 36.6635 20.4967 36.9074 20.4967C37.6043 20.4967 38.3853 20.2139 38.9115 19.5009C39.7237 18.4003 38.1206 18.5484 38.5939 17.9073C38.8519 17.558 39.2511 17.4622 39.5298 17.4622C39.7888 17.4622 39.8962 17.5055 40.0794 17.6011L40.4742 17.1608ZM42.9635 17.1608C42.7846 17.0794 42.539 17.0411 42.3099 17.0411C41.6826 17.0411 40.9616 17.3571 40.5236 17.9505C39.7572 18.9891 41.4027 18.7833 40.8516 19.5299C40.5622 19.9222 40.0507 20.0755 39.767 20.0755C39.513 20.0755 39.2849 19.9797 39.1653 19.9126L38.7871 20.3578C38.9631 20.4296 39.1528 20.4967 39.3966 20.4967C40.0936 20.4967 40.8744 20.2139 41.4006 19.5009C42.213 18.4003 40.61 18.5484 41.0832 17.9073C41.3411 17.558 41.7404 17.4622 42.0191 17.4622C42.2781 17.4622 42.3857 17.5055 42.5687 17.6011L42.9635 17.1608Z" fill="#D2002E"/>
</g>
<defs>
<clipPath id="clip0_124_7983">
<rect width="64.6831" height="20" fill="white" transform="translate(0 0.5)"/>
</clipPath>
</defs>
</svg>
