<svg width="65" height="19" viewBox="0 0 65 19" fill="none" xmlns="http://www.w3.org/2000/svg">
<g clip-path="url(#clip0_124_7970)">
<path d="M64.5344 16.1594C64.5344 15.159 63.825 14.4264 62.8478 14.4264C61.8722 14.4264 61.1619 15.159 61.1619 16.1594C61.1619 17.1581 61.8722 17.8894 62.8478 17.8894C63.825 17.8894 64.5344 17.1569 64.5344 16.1594ZM62.4046 16.2482V17.3801H62.039V14.8842H62.9476C63.4801 14.8842 63.7244 15.1168 63.7244 15.5701C63.7244 15.8493 63.5357 16.0705 63.2926 16.1025V16.1131C63.5036 16.1468 63.5811 16.3351 63.6245 16.6796C63.6578 16.9029 63.7021 17.29 63.7816 17.3809H63.349C63.2483 17.1464 63.2585 16.8144 63.181 16.5364C63.1168 16.3249 63.004 16.2478 62.7617 16.2478H62.4066V16.2491L62.4046 16.2482ZM62.8579 15.9256C63.213 15.9256 63.3145 15.7365 63.3145 15.5697C63.3145 15.3724 63.213 15.2166 62.8579 15.2166H62.4046V15.9264H62.8579V15.9256ZM60.7598 16.1594C60.7598 14.9268 61.7382 14.0937 62.8462 14.0937C63.9573 14.0937 64.9346 14.9268 64.9346 16.1594C64.9346 17.3895 63.9577 18.2235 62.8462 18.2235C61.7382 18.2235 60.7598 17.3895 60.7598 16.1594Z" fill="#FF5A00"/>
<path d="M53.5302 17.8635L51.1249 15.1659L48.7406 17.8635H43.7236L48.6269 12.3547L43.7236 6.84421H48.8972L51.327 9.5211L53.665 6.84421H58.6576L53.7786 12.3315L58.7254 17.8635H53.5302ZM34.0898 17.8635V0.504639H43.7236V4.37388H38.1705V6.84421H43.7236V10.5673H38.1705V13.9845H43.7236V17.8635H34.0898Z" fill="#FF5A00"/>
<path d="M30.0238 0.504639V7.60881H29.9788C29.079 6.57474 27.9544 6.21435 26.6505 6.21435C23.9785 6.21435 21.9655 8.0321 21.2589 10.4334C20.453 7.78697 18.3747 6.16484 15.2936 6.16484C12.7908 6.16484 10.8151 7.28779 9.7831 9.11811V6.84381H4.61071V4.37429H10.2559V0.505451H0V17.8635H4.61071V10.5674H9.20641C9.06485 11.1284 8.99408 11.705 8.99578 12.2836C8.99578 15.9029 11.7616 18.4463 15.2927 18.4463C18.261 18.4463 20.2188 17.0514 21.2533 14.5121H17.3016C16.7676 15.2763 16.3617 15.5019 15.2931 15.5019C14.0545 15.5019 12.9856 14.4208 12.9856 13.1408H21.0317C21.3807 16.0161 23.6209 18.4954 26.6955 18.4954C28.0218 18.4954 29.2361 17.8432 29.9783 16.7414H30.023V17.8659H34.0883V0.505451H30.0238V0.504639ZM13.1138 10.6193C13.3707 9.51624 14.2258 8.79548 15.2931 8.79548C16.4684 8.79548 17.2801 9.49392 17.4932 10.6193H13.1138ZM27.5567 15.2219C26.0588 15.2219 25.1278 13.8262 25.1278 12.3685C25.1278 10.81 25.9378 9.31292 27.5567 9.31292C29.2365 9.31292 29.9057 10.8109 29.9057 12.3685C29.9057 13.8449 29.1971 15.2219 27.5567 15.2219Z" fill="#29007C"/>
</g>
<defs>
<clipPath id="clip0_124_7970">
<rect width="64.9351" height="18" fill="white" transform="translate(0 0.5)"/>
</clipPath>
</defs>
</svg>
