<svg width="76" height="21" viewBox="0 0 76 21" fill="none" xmlns="http://www.w3.org/2000/svg">
<g clip-path="url(#clip0_124_8019)">
<path d="M28.006 4.5903H23.8611C23.5775 4.5903 23.3363 4.79636 23.292 5.07636L21.6157 15.7048C21.5823 15.9145 21.7448 16.1036 21.9575 16.1036H23.9363C24.2199 16.1036 24.4611 15.8976 24.5054 15.617L24.9575 12.7503C25.0011 12.4697 25.243 12.2636 25.526 12.2636H26.8381C29.5684 12.2636 31.1442 10.9424 31.5557 8.32424C31.7411 7.17879 31.5636 6.27879 31.0272 5.64848C30.4381 4.95636 29.3933 4.5903 28.006 4.5903ZM28.4842 8.47212C28.2575 9.95939 27.1211 9.95939 26.0223 9.95939H25.3969L25.8357 7.18182C25.8617 7.01394 26.0072 6.8903 26.1769 6.8903H26.4636C27.212 6.8903 27.9181 6.8903 28.283 7.31697C28.5005 7.57151 28.5672 7.9497 28.4842 8.47212Z" fill="#253B80"/>
<path d="M40.3957 8.42425H38.4108C38.2417 8.42425 38.0957 8.54788 38.0696 8.71576L37.9817 9.27091L37.8429 9.0697C37.4132 8.44606 36.4551 8.23758 35.4987 8.23758C33.3054 8.23758 31.432 9.89879 31.0672 12.2291C30.8775 13.3915 31.1472 14.503 31.8066 15.2782C32.4114 15.9909 33.2769 16.2879 34.3066 16.2879C36.0739 16.2879 37.0539 15.1515 37.0539 15.1515L36.9654 15.703C36.932 15.9139 37.0945 16.103 37.306 16.103H39.0939C39.3781 16.103 39.6181 15.897 39.6629 15.6164L40.7357 8.82303C40.7696 8.61394 40.6078 8.42425 40.3957 8.42425ZM37.629 12.2873C37.4375 13.4212 36.5375 14.1824 35.3896 14.1824C34.8132 14.1824 34.3526 13.9976 34.0569 13.6473C33.7636 13.2994 33.652 12.8042 33.7454 12.2527C33.9242 11.1285 34.8393 10.3424 35.9696 10.3424C36.5332 10.3424 36.9914 10.5297 37.2932 10.883C37.5957 11.24 37.7157 11.7382 37.629 12.2873Z" fill="#253B80"/>
<path d="M50.9664 8.42424H48.9719C48.7816 8.42424 48.6028 8.51879 48.4949 8.67697L45.744 12.7291L44.5779 8.83515C44.5046 8.59151 44.2797 8.42424 44.0252 8.42424H42.0652C41.827 8.42424 41.6616 8.65697 41.7373 8.88121L43.9343 15.3285L41.8688 18.2442C41.7064 18.4739 41.87 18.7897 42.1506 18.7897H44.1428C44.3319 18.7897 44.5088 18.6976 44.6161 18.5424L51.25 8.96666C51.4088 8.73757 51.2458 8.42424 50.9664 8.42424Z" fill="#253B80"/>
<path d="M57.5704 4.5903H53.425C53.142 4.5903 52.9007 4.79636 52.8565 5.07636L51.1801 15.7048C51.1468 15.9145 51.3092 16.1036 51.5207 16.1036H53.648C53.8456 16.1036 54.0147 15.9594 54.0456 15.763L54.5213 12.7503C54.565 12.4697 54.8068 12.2636 55.0898 12.2636H56.4013C59.1323 12.2636 60.7074 10.9424 61.1195 8.32424C61.3056 7.17879 61.1268 6.27879 60.5904 5.64848C60.002 4.95636 58.9577 4.5903 57.5704 4.5903ZM58.0486 8.47212C57.8226 9.95939 56.6862 9.95939 55.5868 9.95939H54.962L55.4013 7.18182C55.4274 7.01394 55.5716 6.8903 55.742 6.8903H56.0286C56.7765 6.8903 57.4832 6.8903 57.848 7.31697C58.0656 7.57151 58.1316 7.9497 58.0486 8.47212Z" fill="#179BD7"/>
<path d="M69.9595 8.42425H67.9759C67.8055 8.42425 67.6607 8.54788 67.6352 8.71576L67.5474 9.27091L67.408 9.0697C66.9783 8.44606 66.0207 8.23758 65.0643 8.23758C62.871 8.23758 60.9983 9.89879 60.6334 12.2291C60.4443 13.3915 60.7128 14.503 61.3722 15.2782C61.9783 15.9909 62.8425 16.2879 63.8722 16.2879C65.6395 16.2879 66.6195 15.1515 66.6195 15.1515L66.531 15.703C66.4977 15.9139 66.6601 16.103 66.8728 16.103H68.6601C68.9431 16.103 69.1843 15.897 69.2286 15.6164L70.3019 8.82303C70.3346 8.61394 70.1722 8.42425 69.9595 8.42425ZM67.1928 12.2873C67.0025 13.4212 66.1013 14.1824 64.9534 14.1824C64.3783 14.1824 63.9165 13.9976 63.6207 13.6473C63.3274 13.2994 63.2171 12.8042 63.3092 12.2527C63.4892 11.1285 64.4031 10.3424 65.5334 10.3424C66.0971 10.3424 66.5552 10.5297 66.8571 10.883C67.1607 11.24 67.2807 11.7382 67.1928 12.2873Z" fill="#179BD7"/>
<path d="M72.2993 4.88182L70.5981 15.7049C70.5648 15.9145 70.7272 16.1036 70.9387 16.1036H72.649C72.9333 16.1036 73.1745 15.8976 73.2181 15.617L74.8957 4.98909C74.929 4.7794 74.7666 4.5897 74.5551 4.5897H72.6399C72.4708 4.5903 72.3254 4.71394 72.2993 4.88182Z" fill="#179BD7"/>
<path d="M4.40318 18.1691L4.72015 16.1558L4.01409 16.1394H0.642578L2.98561 1.28303C2.99288 1.23818 3.01652 1.19636 3.05106 1.16667C3.08561 1.13697 3.12985 1.12061 3.17591 1.12061H8.86076C10.748 1.12061 12.0505 1.51333 12.7305 2.28848C13.0492 2.65212 13.2523 3.03212 13.3505 3.4503C13.4535 3.88909 13.4553 4.41333 13.3547 5.05273L13.3474 5.09939V5.50909L13.6662 5.68969C13.9347 5.83212 14.148 5.99515 14.3117 6.18182C14.5844 6.49273 14.7608 6.88788 14.8353 7.35636C14.9123 7.83818 14.8868 8.41151 14.7608 9.0606C14.6153 9.80727 14.3801 10.4576 14.0626 10.9897C13.7705 11.48 13.3983 11.8867 12.9565 12.2018C12.5347 12.5012 12.0335 12.7285 11.4668 12.8739C10.9177 13.017 10.2917 13.0891 9.605 13.0891H9.16258C8.84621 13.0891 8.53894 13.203 8.29773 13.4073C8.05591 13.6158 7.89591 13.9006 7.84682 14.2121L7.81349 14.3933L7.25349 17.9418L7.22803 18.0721C7.22136 18.1133 7.20985 18.1339 7.19288 18.1479C7.17773 18.1606 7.15591 18.1691 7.1347 18.1691H4.40318Z" fill="#253B80"/>
<path d="M13.968 5.14667C13.951 5.25515 13.9316 5.36606 13.9098 5.48C13.1601 9.32909 10.5953 10.6588 7.31949 10.6588H5.65162C5.25101 10.6588 4.91343 10.9497 4.85101 11.3448L3.99707 16.7606L3.75525 18.2958C3.71465 18.5552 3.91465 18.7891 4.17646 18.7891H7.13465C7.48495 18.7891 7.78252 18.5345 7.83768 18.1891L7.86677 18.0388L8.42374 14.5042L8.45949 14.3103C8.51404 13.9636 8.81222 13.7091 9.16252 13.7091H9.60495C12.471 13.7091 14.7146 12.5455 15.3704 9.17818C15.6443 7.77152 15.5025 6.59697 14.7777 5.77091C14.5583 5.52182 14.2862 5.31515 13.968 5.14667Z" fill="#179BD7"/>
<path d="M13.1843 4.83394C13.0697 4.80061 12.9516 4.7703 12.8303 4.74303C12.7085 4.71637 12.5837 4.69273 12.4552 4.67212C12.0055 4.5994 11.5128 4.56485 10.9849 4.56485H6.52914C6.41944 4.56485 6.3152 4.5897 6.22186 4.63455C6.01641 4.73333 5.86368 4.92788 5.82671 5.16606L4.87884 11.1697L4.85156 11.3449C4.91399 10.9497 5.25156 10.6588 5.65217 10.6588H7.32005C10.5958 10.6588 13.1607 9.32849 13.9103 5.48C13.9328 5.36606 13.9516 5.25515 13.9685 5.14667C13.7788 5.04606 13.5734 4.96 13.3522 4.88667C13.2976 4.86849 13.2413 4.85091 13.1843 4.83394Z" fill="#222D65"/>
<path d="M5.82666 5.16606C5.86363 4.92788 6.01636 4.73333 6.22181 4.63515C6.31575 4.5903 6.41939 4.56545 6.52909 4.56545H10.9848C11.5127 4.56545 12.0055 4.6 12.4551 4.67273C12.5836 4.69333 12.7085 4.71697 12.8303 4.74364C12.9515 4.77091 13.0697 4.80121 13.1842 4.83455C13.2412 4.85152 13.2976 4.86909 13.3527 4.88667C13.5739 4.96 13.7794 5.04667 13.9691 5.14667C14.1921 3.72424 13.9673 2.75576 13.1982 1.87879C12.3503 0.913333 10.82 0.5 8.86181 0.5H3.17696C2.77696 0.5 2.43575 0.790909 2.37393 1.18667L0.00605383 16.1958C-0.0406128 16.4927 0.188478 16.7606 0.487872 16.7606H3.99757L4.87878 11.1697L5.82666 5.16606Z" fill="#253B80"/>
</g>
<defs>
<clipPath id="clip0_124_8019">
<rect width="75.1515" height="20" fill="white" transform="translate(0 0.5)"/>
</clipPath>
</defs>
</svg>
