<svg width="20" height="20" viewBox="0 0 20 20" fill="none" xmlns="http://www.w3.org/2000/svg">
<path fillRule="evenodd" clipRule="evenodd" d="M10.0002 2.29163C8.96465 2.29163 8.12518 3.13109 8.12518 4.16663V4.38319C8.5894 4.37495 9.09879 4.37495 9.6578 4.37496H10.3426C10.9016 4.37495 11.411 4.37495 11.8752 4.38319V4.16663C11.8752 3.13109 11.0357 2.29163 10.0002 2.29163ZM13.1252 4.4399V4.16663C13.1252 2.44074 11.7261 1.04163 10.0002 1.04163C8.27429 1.04163 6.87518 2.44074 6.87518 4.16663V4.4399C6.75624 4.45014 6.6413 4.46199 6.53024 4.47571C5.6886 4.5797 4.99474 4.79815 4.40533 5.28732C3.81592 5.77649 3.47335 6.4182 3.21603 7.22626C2.96667 8.00936 2.77791 9.01613 2.54063 10.2817L2.52339 10.3736C2.18857 12.1593 1.92469 13.5665 1.87627 14.676C1.82664 15.8131 1.99581 16.755 2.63729 17.5279C3.27877 18.3008 4.17329 18.6407 5.30012 18.8015C6.39947 18.9583 7.83125 18.9583 9.64805 18.9583H10.3523C12.1691 18.9583 13.6009 18.9583 14.7002 18.8015C15.8271 18.6407 16.7216 18.3008 17.3631 17.5279C18.0045 16.755 18.1737 15.8131 18.1241 14.676C18.0757 13.5665 17.8118 12.1593 17.477 10.3736L17.4597 10.2817C17.2225 9.01614 17.0337 8.00937 16.7843 7.22626C16.527 6.4182 16.1844 5.77649 15.595 5.28732C15.0056 4.79815 14.3118 4.5797 13.4701 4.47571C13.3591 4.46199 13.2441 4.45014 13.1252 4.4399ZM6.68351 5.71628C5.97056 5.80437 5.53997 5.97007 5.20363 6.24921C4.86729 6.52834 4.62507 6.92103 4.40711 7.60553C4.18389 8.30652 4.00826 9.23716 3.7615 10.5532C3.41507 12.4009 3.16916 13.7205 3.12508 14.7305C3.08175 15.7232 3.24098 16.298 3.59918 16.7296C3.95739 17.1612 4.49301 17.4236 5.47669 17.564C6.47745 17.7068 7.81984 17.7083 9.69969 17.7083H10.3007C12.1805 17.7083 13.5229 17.7068 14.5237 17.564C15.5074 17.4236 16.043 17.1612 16.4012 16.7296C16.7594 16.298 16.9186 15.7232 16.8753 14.7305C16.8312 13.7205 16.5853 12.4009 16.2389 10.5532C15.9921 9.23716 15.8165 8.30652 15.5933 7.60553C15.3753 6.92103 15.1331 6.52834 14.7967 6.24921C14.4604 5.97007 14.0298 5.80437 13.3168 5.71628C12.5867 5.62607 11.6397 5.62496 10.3007 5.62496H9.69969C8.36069 5.62496 7.41364 5.62607 6.68351 5.71628ZM7.60293 8.55013C7.94341 8.60688 8.17342 8.92889 8.11668 9.26938L7.28334 14.2694C7.22659 14.6099 6.90458 14.8399 6.5641 14.7831C6.22361 14.7264 5.9936 14.4044 6.05035 14.0639L6.88368 9.06388C6.94043 8.7234 7.26245 8.49338 7.60293 8.55013ZM12.3974 8.55013C12.7379 8.49338 13.0599 8.7234 13.1167 9.06388L13.95 14.0639C14.0068 14.4044 13.7767 14.7264 13.4363 14.7831C13.0958 14.8399 12.7738 14.6099 12.717 14.2694L11.8837 9.26938C11.8269 8.92889 12.0569 8.60688 12.3974 8.55013Z" fill="#3C50E0"/>
</svg>
