<svg width="40" height="41" viewBox="0 0 40 41" fill="none" xmlns="http://www.w3.org/2000/svg">
<path d="M5.00511 21.0941C5.49296 21.5826 5.49248 22.3741 5.00403 22.8619L4.74771 23.1179C4.52876 23.3366 4.52876 23.6905 4.74771 23.9092C4.96749 24.1287 5.32447 24.1287 5.54426 23.9092L8.36382 21.0931C8.85228 20.6052 9.64373 20.6057 10.1316 21.0941C10.6194 21.5826 10.619 22.3741 10.1305 22.8619L7.31095 25.6781C6.1151 26.8724 4.17687 26.8724 2.98102 25.6781C1.78432 24.4828 1.78432 22.5443 2.98102 21.3491L3.23734 21.0931C3.72579 20.6052 4.51725 20.6057 5.00511 21.0941Z" fill="#1C274C"/>
<path d="M13.0952 22.7546C13.5834 23.2427 13.5834 24.0342 13.0952 24.5224L9.56707 28.0505C9.07892 28.5387 8.28746 28.5387 7.7993 28.0505C7.31115 27.5624 7.31115 26.7709 7.7993 26.2828L11.3275 22.7546C11.8156 22.2664 12.6071 22.2664 13.0952 22.7546Z" fill="#1C274C"/>
<path d="M17.7214 27.3751C18.2096 27.8633 18.2096 28.6548 17.7214 29.1429L14.2174 32.647C13.7292 33.1351 12.9378 33.1351 12.4496 32.647C11.9615 32.1588 11.9615 31.3673 12.4496 30.8792L15.9537 27.3751C16.4418 26.887 17.2333 26.887 17.7214 27.3751Z" fill="#1C274C"/>
<path d="M12.4539 28.0349C12.9366 28.5284 12.9278 29.3199 12.4342 29.8025L9.58491 32.5891C9.09136 33.0718 8.29995 33.063 7.81726 32.5694C7.33456 32.0759 7.34337 31.2845 7.83693 30.8018L10.6862 28.0152C11.1798 27.5325 11.9712 27.5413 12.4539 28.0349Z" fill="#1C274C"/>
<path d="M19.3441 30.3768C19.8319 30.8653 19.8314 31.6567 19.343 32.1446L16.5234 34.9607C16.3045 35.1794 16.3045 35.5333 16.5234 35.752C16.7432 35.9715 17.1002 35.9715 17.32 35.752L17.5763 35.496C18.0647 35.0081 18.8562 35.0086 19.3441 35.4971C19.8319 35.9855 19.8314 36.777 19.343 37.2648L19.0867 37.5209C17.8908 38.7152 15.9526 38.7152 14.7567 37.5209C13.56 36.3256 13.56 34.3871 14.7567 33.1919L17.5763 30.3757C18.0647 29.8879 18.8562 29.8884 19.3441 30.3768Z" fill="#1C274C"/>
<path fillRule="evenodd" clipRule="evenodd" d="M29.9868 2.58322L30.2096 2.58331L31.1184 2.58331C32.3743 2.58326 33.4402 2.58321 34.2905 2.69704C35.195 2.81814 36.0404 3.08823 36.724 3.76893C37.4083 4.45037 37.6805 5.29437 37.8025 6.19761C37.9169 7.04532 37.9169 8.10769 37.9168 9.35755L37.9168 10.2633L37.9169 10.4865C37.9179 11.9882 37.9186 13.0878 37.4994 14.0955C37.0804 15.1028 36.2999 15.8791 35.2328 16.9403L35.0743 17.098L31.2977 20.8587L31.3631 20.9596C31.9313 21.836 32.3966 22.5538 32.7335 23.1745C33.0842 23.8206 33.3392 24.4372 33.4416 25.1246C33.6043 26.218 33.457 27.3408 33.0263 28.3712C32.862 28.7643 32.5818 29.1683 32.3038 29.5263C32.0108 29.9038 31.6539 30.3133 31.2726 30.7282C30.5144 31.5534 29.605 32.4589 28.8007 33.2599L28.7889 33.2716L28.6671 33.393C27.5432 34.5121 25.5934 34.152 24.9921 32.6452C24.6606 31.8146 24.531 31.4958 24.3698 31.2022C24.2191 30.9278 24.0461 30.666 23.8527 30.4194C23.6487 30.1595 23.41 29.918 22.7964 29.307L22.0914 28.6896C21.9731 28.7022 21.8533 28.7087 21.7317 28.7087C20.7669 28.7087 19.9775 28.305 19.2508 27.7529C18.5684 27.2345 17.8144 26.4836 16.9266 25.5994L14.816 23.4977C13.9282 22.6138 13.1741 21.8629 12.6533 21.1832C12.099 20.4597 11.6915 19.6711 11.6915 18.7055C11.6915 18.5598 11.7009 18.4168 11.7191 18.2762L10.5733 17.1353C10.5028 17.0651 10.4756 17.038 10.4488 17.0121C9.92185 16.5014 9.30177 16.0951 8.62158 15.8152C8.58703 15.801 8.55127 15.7868 8.45861 15.7502L7.90958 15.5329C6.33178 14.9085 5.90492 12.872 7.11151 11.6706L7.12315 11.659C7.92755 10.858 8.83697 9.95241 9.66562 9.19739C10.0823 8.81775 10.4934 8.46241 10.8724 8.17066C11.2321 7.89379 11.6371 7.61526 12.0306 7.4522C13.0634 7.02418 14.1882 6.87797 15.2832 7.03958C15.9712 7.14114 16.5889 7.39431 17.2374 7.74331C17.8605 8.07867 18.5812 8.54196 19.4615 9.10786L19.571 9.17827L23.3536 5.41167L23.5111 5.25468C24.5777 4.19123 25.3566 3.41456 26.3667 2.99795C27.3762 2.58156 28.4774 2.58226 29.9868 2.58322ZM29.487 22.6618C29.9559 23.3869 30.2925 23.9178 30.5363 24.3671C30.8127 24.8764 30.9258 25.2037 30.9688 25.4927C31.0624 26.1217 30.9799 26.7846 30.7197 27.4072C30.6881 27.4828 30.5777 27.673 30.3291 27.9932C30.0956 28.294 29.79 28.6468 29.4317 29.0367C28.7567 29.7714 27.9438 30.5848 27.1693 31.3563C26.9393 30.7827 26.7713 30.3817 26.5611 29.9988C26.3449 29.6051 26.0969 29.2297 25.8195 28.8762C25.5067 28.4775 25.1488 28.1212 24.5877 27.5626L24.5273 27.5024C24.5836 27.4557 24.6395 27.4082 24.6953 27.3601C25.2447 26.8861 25.8601 26.2734 26.5677 25.5687L29.487 22.6618ZM30.2096 5.08331C28.3813 5.08331 27.814 5.10528 27.3199 5.30907C26.8264 5.51263 26.4105 5.8957 25.1176 7.18316L16.6397 15.6253C15.9156 16.3464 15.3722 16.8884 14.9639 17.3538C14.5533 17.8218 14.356 18.1289 14.2634 18.3588C14.2107 18.4897 14.1915 18.5975 14.1915 18.7055C14.1915 18.9015 14.2534 19.161 14.6378 19.6627C15.0441 20.193 15.6759 20.8259 16.6397 21.7857L16.7534 21.8988L18.8584 19.8027C19.3476 19.3156 20.139 19.3173 20.6261 19.8064C21.1133 20.2956 21.1116 21.0871 20.6224 21.5742L18.5249 23.6629L18.6311 23.7686C19.5948 24.7283 20.2304 25.3575 20.7632 25.7623C21.2669 26.145 21.5301 26.2087 21.7317 26.2087C21.8348 26.2087 21.9356 26.1917 22.0526 26.1487C22.2797 26.0651 22.5864 25.8776 23.0624 25.4671C23.5363 25.0583 24.0895 24.5084 24.8324 23.7686L33.3103 15.3265C34.6038 14.0384 34.9875 13.625 35.1911 13.1354C35.3945 12.6464 35.4168 12.0851 35.4168 10.2633L35.4168 9.44196C35.4168 8.08451 35.4142 7.19269 35.325 6.53211C35.2407 5.90803 35.1005 5.68036 34.96 5.54043C34.8187 5.39977 34.5879 5.25917 33.9587 5.17493C33.2941 5.08595 32.3972 5.08331 31.0345 5.08331H30.2096ZM30.5791 9.88792C28.9916 8.30709 26.4199 8.30709 24.8324 9.88792C23.242 11.4717 23.242 14.0416 24.8324 15.6253C26.4199 17.2062 28.9916 17.2062 30.5791 15.6253C32.1696 14.0416 32.1696 11.4717 30.5791 9.88792ZM26.5964 11.6594C27.2085 11.0499 28.203 11.0499 28.8151 11.6594C29.4243 12.266 29.4243 13.2473 28.8151 13.8538C28.203 14.4633 27.2085 14.4633 26.5964 13.8538C25.9873 13.2473 25.9873 12.266 26.5964 11.6594ZM17.7572 10.9845C17.0333 10.5204 16.5023 10.1868 16.0526 9.94474C15.5408 9.6693 15.2107 9.55598 14.9181 9.51279C14.2835 9.41911 13.6149 9.5018 12.9877 9.76173C12.9106 9.79369 12.7189 9.90417 12.3974 10.1516C12.0953 10.3842 11.7409 10.6886 11.3494 11.0453C10.6149 11.7145 9.80215 12.5197 9.03045 13.2878L9.37859 13.4256L9.38696 13.4289C9.46877 13.4613 9.52091 13.4819 9.57294 13.5033C10.5459 13.9037 11.4337 14.4851 12.1886 15.2168C12.2291 15.256 12.2689 15.2957 12.3316 15.3581L12.8983 15.9224C12.9592 15.8496 13.0214 15.7772 13.0846 15.7051C13.5548 15.1691 14.1576 14.5689 14.8489 13.8805L17.7572 10.9845Z" fill="#1C274C"/>
</svg>
