<svg width="40" height="41" viewBox="0 0 40 41" fill="none" xmlns="http://www.w3.org/2000/svg">
<path fillRule="evenodd" clipRule="evenodd" d="M14.9816 9.34628C16.9482 5.34239 21.0672 2.58331 25.8333 2.58331C32.5067 2.58331 37.9166 7.99321 37.9166 14.6666C37.9166 16.4535 37.5279 18.1529 36.8294 19.6822C36.6471 20.0813 36.6116 20.4583 36.6926 20.7612L36.9049 21.5546C37.5845 24.0944 35.261 26.4179 32.7212 25.7383L31.9279 25.526C31.7024 25.4657 31.4359 25.4699 31.1498 25.5512C30.2997 32.7958 24.1395 38.4166 16.6666 38.4166C14.4166 38.4166 12.2824 37.9063 10.3764 36.9938C9.9991 36.8131 9.62759 36.7765 9.32199 36.8582L7.27859 37.405C4.73887 38.0845 2.41537 35.761 3.09491 33.2213L3.64165 31.1779C3.72342 30.8723 3.68677 30.5008 3.50613 30.1235C2.59364 28.2175 2.08325 26.0833 2.08325 23.8333C2.08325 16.3491 7.72114 10.1816 14.9816 9.34628ZM17.8916 9.3007C25.0996 9.90017 30.8189 15.7418 31.2267 23.0027C31.6642 22.961 32.1189 22.9892 32.574 23.111L33.3674 23.3233C34.0488 23.5056 34.6722 22.8822 34.4899 22.2008L34.2776 21.4074C34.0157 20.4285 34.1864 19.4513 34.5554 18.6435C35.108 17.4337 35.4166 16.0879 35.4166 14.6666C35.4166 9.37392 31.126 5.08331 25.8333 5.08331C22.5301 5.08331 19.6153 6.75471 17.8916 9.3007ZM16.6666 11.75C9.99315 11.75 4.58325 17.1599 4.58325 23.8333C4.58325 25.7017 5.00645 27.4678 5.76104 29.044C6.15338 29.8635 6.3179 30.8479 6.0567 31.8241L5.50996 33.8675C5.32764 34.5489 5.95102 35.1723 6.63241 34.9899L8.67581 34.4432C9.65202 34.182 10.6364 34.3465 11.4559 34.7389C13.0321 35.4935 14.7982 35.9166 16.6666 35.9166C23.34 35.9166 28.7499 30.5068 28.7499 23.8333C28.7499 17.1599 23.34 11.75 16.6666 11.75Z" fill="#1C274C"/>
<path d="M12.4999 23.8333C12.4999 24.7538 11.7537 25.5 10.8333 25.5C9.91278 25.5 9.16659 24.7538 9.16659 23.8333C9.16659 22.9128 9.91278 22.1666 10.8333 22.1666C11.7537 22.1666 12.4999 22.9128 12.4999 23.8333Z" fill="#1C274C"/>
<path d="M18.3333 23.8333C18.3333 24.7538 17.5871 25.5 16.6666 25.5C15.7461 25.5 14.9999 24.7538 14.9999 23.8333C14.9999 22.9128 15.7461 22.1666 16.6666 22.1666C17.5871 22.1666 18.3333 22.9128 18.3333 23.8333Z" fill="#1C274C"/>
<path d="M24.1666 23.8333C24.1666 24.7538 23.4204 25.5 22.4999 25.5C21.5794 25.5 20.8333 24.7538 20.8333 23.8333C20.8333 22.9128 21.5794 22.1666 22.4999 22.1666C23.4204 22.1666 24.1666 22.9128 24.1666 23.8333Z" fill="#1C274C"/>
</svg>
