<svg width="40" height="41" viewBox="0 0 40 41" fill="none" xmlns="http://www.w3.org/2000/svg">
<path d="M25.0991 17.9992C25.5589 17.4842 25.5141 16.694 24.9992 16.2342C24.4842 15.7744 23.694 15.8192 23.2342 16.3341L18.2143 21.9565L16.7658 20.3341C16.306 19.8192 15.5158 19.7744 15.0008 20.2342C14.4859 20.694 14.4411 21.4842 14.9009 21.9992L17.2819 24.6658C17.519 24.9314 17.8582 25.0833 18.2143 25.0833C18.5704 25.0833 18.9096 24.9314 19.1467 24.6658L25.0991 17.9992Z" fill="#1C274C"/>
<path fillRule="evenodd" clipRule="evenodd" d="M20 2.58331C18.4375 2.58331 16.9455 3.09428 14.539 3.91851L13.3266 4.33354C10.8577 5.17864 8.95234 5.83085 7.58838 6.38496C6.90131 6.66408 6.31061 6.93443 5.83497 7.21066C5.37724 7.47649 4.91804 7.80805 4.60605 8.25255C4.29767 8.69192 4.13822 9.23205 4.03802 9.75201C3.93385 10.2926 3.87104 10.941 3.8305 11.6856C3.75 13.1639 3.75 15.1892 3.75 17.816V20.4856C3.75 30.654 11.43 35.5292 15.9972 37.5243L16.0424 37.544C16.6087 37.7914 17.141 38.024 17.7527 38.1806C18.3984 38.3459 19.0846 38.4166 20 38.4166C20.9154 38.4166 21.6016 38.3459 22.2473 38.1806C22.859 38.0241 23.3913 37.7915 23.9576 37.544L24.0028 37.5243C28.57 35.5292 36.25 30.654 36.25 20.4856V17.8163C36.25 15.1893 36.25 13.164 36.1695 11.6856C36.129 10.941 36.0661 10.2926 35.962 9.75201C35.8618 9.23205 35.7023 8.69192 35.3939 8.25255C35.082 7.80805 34.6228 7.47649 34.165 7.21066C33.6894 6.93443 33.0987 6.66408 32.4116 6.38496C31.0477 5.83085 29.1423 5.17864 26.6734 4.33353L25.461 3.91851C23.0545 3.09429 21.5625 2.58331 20 2.58331ZM15.1344 6.35714C17.8252 5.43604 18.9038 5.08331 20 5.08331C21.0962 5.08331 22.1748 5.43604 24.8656 6.35714L25.8203 6.68393C28.3413 7.54688 30.1798 8.17672 31.4707 8.70112C32.115 8.96288 32.5818 9.18222 32.9095 9.37253C33.0713 9.46648 33.1828 9.54401 33.2572 9.60452C33.3203 9.65579 33.3444 9.68484 33.3478 9.68912C33.351 9.69431 33.3718 9.72893 33.401 9.81087C33.4343 9.90439 33.4712 10.0385 33.5071 10.2251C33.5799 10.6028 33.6351 11.1217 33.6732 11.8215C33.7495 13.2235 33.75 15.1805 33.75 17.8611V20.4856C33.75 29.1107 27.3002 33.3557 23.002 35.2333C22.3829 35.5037 22.0254 35.6568 21.6273 35.7587C21.2472 35.856 20.7833 35.9166 20 35.9166C19.2167 35.9166 18.7528 35.856 18.3727 35.7587C17.9746 35.6568 17.6171 35.5037 16.998 35.2333C12.6998 33.3557 6.25 29.1107 6.25 20.4856V17.8611C6.25 15.1805 6.25046 13.2235 6.3268 11.8215C6.36491 11.1217 6.42007 10.6028 6.49286 10.2251C6.52882 10.0385 6.56574 9.90439 6.59905 9.81087C6.62821 9.72899 6.64893 9.69436 6.65215 9.68912C6.6556 9.68489 6.67966 9.65584 6.74278 9.60452C6.81723 9.54401 6.9287 9.46648 7.09048 9.37253C7.41817 9.18222 7.885 8.96288 8.52932 8.70112C9.82016 8.17672 11.6587 7.54688 14.1797 6.68393L15.1344 6.35714Z" fill="#1C274C"/>
</svg>
