<svg width="20" height="20" viewBox="0 0 20 20" fill="none" xmlns="http://www.w3.org/2000/svg">
<path fillRule="evenodd" clipRule="evenodd" d="M7.43433 6.07751C7.75978 5.96248 8.11686 6.13306 8.23189 6.4585C8.48958 7.18759 9.18495 7.70845 10.0004 7.70845C10.8158 7.70845 11.5111 7.18759 11.7688 6.4585C11.8839 6.13306 12.2409 5.96248 12.5664 6.07751C12.8918 6.19254 13.0624 6.54961 12.9474 6.87506C12.5187 8.08796 11.362 8.95845 10.0004 8.95845C8.63874 8.95845 7.48204 8.08796 7.05334 6.87506C6.93831 6.54961 7.10889 6.19254 7.43433 6.07751ZM10.3007 4.58345H9.69971C8.34487 4.58345 7.44312 4.58567 6.76017 4.67005C6.11157 4.75019 5.8126 4.88952 5.60279 5.06364C5.39299 5.23776 5.20096 5.50593 5.00266 6.12866C4.79386 6.78436 4.6255 7.67026 4.37582 9.00189C4.02583 10.8685 3.79119 12.1363 3.74951 13.0912C3.70933 14.0117 3.86357 14.403 4.08014 14.6639C4.29671 14.9249 4.65289 15.1486 5.56499 15.2787C6.51125 15.4138 7.8006 15.4168 9.69971 15.4168H10.3007C12.1998 15.4168 13.4891 15.4138 14.4354 15.2787C15.3475 15.1486 15.7037 14.9249 15.9203 14.6639C16.1368 14.403 16.2911 14.0117 16.2509 13.0912C16.2092 12.1363 15.9746 10.8685 15.6246 9.00189C15.3749 7.67026 15.2065 6.78436 14.9977 6.12866C14.7994 5.50593 14.6074 5.23776 14.3976 5.06364C14.1878 4.88952 13.8888 4.75019 13.2402 4.67005C12.5573 4.58567 11.6555 4.58345 10.3007 4.58345ZM4.8045 4.10175C3.87875 4.87006 3.63491 6.17055 3.14723 8.77153C2.46146 12.429 2.11857 14.2577 3.11826 15.4622C4.11794 16.6668 5.97853 16.6668 9.69971 16.6668H10.3007C14.0219 16.6668 15.8825 16.6668 16.8821 15.4622C17.8818 14.2577 17.5389 12.429 16.8532 8.77153C16.3655 6.17055 16.1216 4.87006 15.1959 4.10175C14.2701 3.33345 12.947 3.33345 10.3007 3.33345H9.69971C7.0534 3.33345 5.73025 3.33345 4.8045 4.10175Z" fill="#3C50E0"/>
</svg>
