<svg width="40" height="41" viewBox="0 0 40 41" fill="none" xmlns="http://www.w3.org/2000/svg">
<path d="M11.1878 18.2893C11.9453 14.0915 15.6422 10.9166 20.0728 10.9166C22.7019 10.9166 25.0718 12.0348 26.7212 13.8178C27.19 14.3246 27.1592 15.1154 26.6525 15.5842C26.1457 16.053 25.3548 16.0223 24.886 15.5155C23.6923 14.2251 21.9797 13.4166 20.0728 13.4166C17.0092 13.4166 14.4495 15.5035 13.7408 18.3088L14.1348 17.931C14.6331 17.4533 15.4244 17.4699 15.9022 17.9682C16.38 18.4665 16.3633 19.2578 15.865 19.7356L13.161 22.3282C12.9155 22.5636 12.5847 22.6887 12.2448 22.6749C11.905 22.661 11.5855 22.5092 11.3601 22.2546L9.06412 19.662C8.60643 19.1452 8.65437 18.3552 9.1712 17.8975C9.68802 17.4398 10.478 17.4878 10.9357 18.0046L11.1878 18.2893Z" fill="#1C274C"/>
<path d="M27.7474 18.3265C28.087 18.3399 28.4066 18.4912 28.6324 18.7453L30.9344 21.3364C31.3929 21.8525 31.3462 22.6426 30.8301 23.1011C30.314 23.5596 29.524 23.513 29.0654 22.9969L28.8067 22.7056C28.0491 26.9096 24.3351 30.0848 19.8912 30.0848C17.2724 30.0848 14.909 28.9825 13.2551 27.2203C12.7827 26.7169 12.8078 25.9258 13.3112 25.4534C13.8146 24.981 14.6056 25.0061 15.0781 25.5095C16.2757 26.7856 17.9865 27.5848 19.8912 27.5848C22.9697 27.5848 25.5366 25.4985 26.2504 22.6988L25.8658 23.0682C25.3679 23.5464 24.5766 23.5304 24.0984 23.0325C23.6202 22.5346 23.6362 21.7433 24.1341 21.2651L26.832 18.674C27.0772 18.4385 27.4077 18.313 27.7474 18.3265Z" fill="#1C274C"/>
<path fillRule="evenodd" clipRule="evenodd" d="M19.9999 2.58331C10.1048 2.58331 2.08325 10.6049 2.08325 20.5C2.08325 30.3951 10.1048 38.4166 19.9999 38.4166C29.895 38.4166 37.9166 30.3951 37.9166 20.5C37.9166 10.6049 29.895 2.58331 19.9999 2.58331ZM4.58325 20.5C4.58325 11.9856 11.4855 5.08331 19.9999 5.08331C28.5143 5.08331 35.4166 11.9856 35.4166 20.5C35.4166 29.0144 28.5143 35.9166 19.9999 35.9166C11.4855 35.9166 4.58325 29.0144 4.58325 20.5Z" fill="#1C274C"/>
</svg>
