<svg width="20" height="20" viewBox="0 0 20 20" fill="none" xmlns="http://www.w3.org/2000/svg">
<path fillRule="evenodd" clipRule="evenodd" d="M9.36509 2.33242C8.85339 2.40004 8.22152 2.54518 7.32267 2.75261L6.29918 2.9888C5.54 3.164 5.01718 3.28545 4.61785 3.4225C4.23233 3.55482 4.01423 3.68526 3.84965 3.84983C3.68507 4.01441 3.55463 4.23252 3.42232 4.61804C3.28527 5.01737 3.16381 5.54019 2.98862 6.29937L2.75243 7.32285C2.545 8.2217 2.39986 8.85357 2.33224 9.36527C2.26636 9.86378 2.28155 10.2011 2.36949 10.5077C2.45742 10.8143 2.62331 11.1084 2.94338 11.4962C3.27193 11.8943 3.7299 12.3532 4.38218 13.0055L5.90688 14.5302C7.03979 15.6631 7.84594 16.4674 8.53901 16.9962C9.21765 17.5139 9.7139 17.7084 10.2184 17.7084C10.723 17.7084 11.2192 17.5139 11.8979 16.9962C12.5909 16.4674 13.3971 15.6631 14.53 14.5302C15.6629 13.3973 16.4672 12.5911 16.996 11.8981C17.5138 11.2194 17.7082 10.7232 17.7082 10.2186C17.7082 9.71409 17.5138 9.21784 16.996 8.53919C16.4672 7.84613 15.6629 7.03997 14.53 5.90706L13.0053 4.38237C12.353 3.73008 11.8941 3.27211 11.496 2.94357C11.1082 2.62349 10.8141 2.45761 10.5075 2.36967C10.2009 2.28173 9.8636 2.26654 9.36509 2.33242ZM9.20132 1.09319C9.79908 1.0142 10.3232 1.01643 10.8521 1.16811C11.381 1.31979 11.8267 1.5957 12.2917 1.9795C12.7412 2.35053 13.2419 2.85119 13.8674 3.47666L15.4472 5.05647C16.5394 6.14864 17.4041 7.01334 17.9898 7.78097C18.5924 8.5708 18.9582 9.33089 18.9582 10.2186C18.9582 11.1064 18.5924 11.8664 17.9898 12.6563C17.4041 13.4239 16.5394 14.2886 15.4472 15.3808L15.3806 15.4473C14.2884 16.5395 13.4237 17.4043 12.6561 17.9899C11.8663 18.5926 11.1062 18.9584 10.2184 18.9584C9.33071 18.9584 8.57062 18.5926 7.78078 17.9899C7.01315 17.4042 6.14845 16.5395 5.05626 15.4473L3.47647 13.8675C2.851 13.2421 2.35034 12.7414 1.97932 12.2919C1.59552 11.8268 1.31961 11.3812 1.16792 10.8523C1.01624 10.3234 1.01401 9.79927 1.09301 9.2015C1.16938 8.62365 1.32859 7.93375 1.52749 7.07187L1.77805 5.98614C1.94402 5.26688 2.07936 4.68035 2.24002 4.21226C2.40779 3.7234 2.61911 3.3126 2.96577 2.96595C3.31242 2.6193 3.72322 2.40798 4.21208 2.2402C4.68017 2.07955 5.2667 1.9442 5.98596 1.77823L7.07169 1.52768C7.93356 1.32878 8.62346 1.16956 9.20132 1.09319ZM7.90895 6.66264C7.50216 6.25584 6.84261 6.25584 6.43581 6.66264C6.02902 7.06944 6.02902 7.72898 6.43581 8.13578C6.84261 8.54258 7.50216 8.54258 7.90895 8.13578C8.31575 7.72898 8.31575 7.06944 7.90895 6.66264ZM5.55193 5.77876C6.44688 4.88381 7.89788 4.88381 8.79284 5.77876C9.68779 6.67371 9.68779 8.12471 8.79284 9.01966C7.89788 9.91461 6.44688 9.91461 5.55193 9.01966C4.65698 8.12471 4.65698 6.67371 5.55193 5.77876ZM15.8757 9.1585C16.1198 9.40257 16.1198 9.7983 15.8757 10.0424L10.0599 15.8584C9.81584 16.1025 9.42011 16.1025 9.17603 15.8584C8.93195 15.6144 8.93194 15.2186 9.17601 14.9746L14.9918 9.15851C15.2359 8.91443 15.6317 8.91442 15.8757 9.1585Z" fill="#3C50E0"/>
</svg>
